<svg xmlns="http://www.w3.org/2000/svg" viewBox="0 0 473.55 473.55"><defs><style>.cls-1{fill:#11005d;stroke:#9d90fa;stroke-miterlimit:10;stroke-width:28px;}.cls-2{fill:#9d90fa;}</style></defs><g id="Layer_2" data-name="Layer 2"><g id="Icons"><g id="Ae"><rect class="cls-1" x="14" y="14" width="445.55" height="445.55" rx="222.77"/><path class="cls-2" d="M125.41,279.3,109.16,328a2.92,2.92,0,0,1-3.25,2.36H76.38c-1.78,0-2.37-.89-2.07-2.95l60.85-173.11c1.18-3,2.07-5.9,2.66-16,0-1.18.59-2.06,1.77-2.06h41.06c1.48,0,1.77.29,2.07,1.77L251,327.74c.3,1.77,0,2.66-1.77,2.66H216.1a3,3,0,0,1-3-1.77L196,279.3Zm61.15-32.2c-6.21-19.5-20.09-60.56-26-81.23h-.29c-4.73,19.79-16.54,54.35-25.41,81.23Z"/><path class="cls-2" d="M297.62,265.71c.89,20.68,14.47,37.22,44.6,37.22a93,93,0,0,0,36.63-7.09c.89-.59,1.78-.3,1.78,1.18v24.52c0,1.77-.59,2.66-1.78,3.25-11.22,5.32-24.22,8.56-44.31,8.56-53.76,0-73-37.81-73-74.14,0-41.06,24.81-77.39,69.42-77.39,43.72,0,60.56,34.26,60.56,62.33,0,8.27-.3,15.06-1.19,18.31a2.53,2.53,0,0,1-2.36,2.07c-4.13.88-15.95,1.18-30.43,1.18Zm44-25.41c11.23,0,15.07,0,16.25-.29v-2.36c0-8.57-5.91-27.48-28.36-27.48-20.38,0-29.54,15.66-31.9,30.13Z"/></g></g></g></svg>