<svg xmlns="http://www.w3.org/2000/svg" viewBox="0 0 473.55 473.55"><defs><style>.cls-1{fill:#310000;stroke:#eea808;stroke-miterlimit:10;stroke-width:28px;}.cls-2{fill:#eea808;}</style></defs><g id="Layer_2" data-name="Layer 2"><g id="Icons"><g id="Ai"><rect class="cls-1" x="14" y="14" width="445.55" height="445.55" rx="222.77"/><path class="cls-2" d="M162,279.3,145.8,328a2.93,2.93,0,0,1-3.25,2.36H113c-1.78,0-2.37-.89-2.07-2.95l60.85-173.1c1.18-3,2.07-5.91,2.66-16,0-1.18.59-2.06,1.77-2.06h41.06c1.48,0,1.77.29,2.07,1.77l68.24,189.64c.29,1.77,0,2.66-1.78,2.66H252.73a3,3,0,0,1-3-1.77L232.64,279.3Zm61.15-32.2c-6.2-19.5-20.09-60.56-26-81.23h-.29c-4.73,19.79-16.54,54.35-25.41,81.23Z"/><path class="cls-2" d="M307.07,144.6c0-12.11,8.57-20.39,20.39-20.39,12.7,0,20.08,8.57,20.08,20.39,0,12.11-8,20.38-20.38,20.38C315.05,165,307.07,156.71,307.07,144.6Zm2.07,42.24c0-1.48.89-2.07,2.37-2.07h31.31c1.77,0,2.36.3,2.36,2.07V328c0,1.77-.59,2.36-2.66,2.36H312.1c-2.07,0-3-.89-3-2.66Z"/></g></g></g></svg>