<svg xmlns="http://www.w3.org/2000/svg" viewBox="0 0 473.55 473.55"><defs><style>.cls-1{fill:#11005d;stroke:#9d90fa;stroke-miterlimit:10;stroke-width:28px;}.cls-2{fill:#9d90fa;}</style></defs><g id="Layer_2" data-name="Layer 2"><g id="Icons"><g id="Pr"><rect class="cls-1" x="14" y="14" width="445.55" height="445.55" rx="222.77"/><path class="cls-2" d="M125.11,139c0-1.47.6-2.36,2.07-2.36,11.23-.29,33.09-.88,54.65-.88,57.31,0,78.58,31.9,78.58,64.39,0,47-36.34,67.35-80.94,67.35H160.86V328c0,1.47-.59,2.36-2.37,2.36h-31c-1.48,0-2.37-.59-2.37-2.07Zm35.75,96.89c5,.3,8.86.3,18.61.3,24.81,0,45.78-8.27,45.78-35.15,0-21.57-15.36-34.27-42.53-34.27-10.34,0-18.61.3-21.86.59Z"/><path class="cls-2" d="M314.17,184.77a2.93,2.93,0,0,1,3.25,2.36c1.47,3.84,2.65,11.23,2.95,17.73,10-12.41,26.88-23,47.26-23,1.77,0,2.37.29,2.37,2.06V215.2c0,1.47-.6,2.06-2.66,2.06-21-.59-38.4,6.8-45.2,15.66V328c0,1.77-.89,2.36-2.66,2.36H288.76c-2.07,0-2.66-.89-2.66-2.36V226.13c0-12.71-.29-29.84-1.47-39.59,0-1.47.29-1.77,1.77-1.77Z"/></g></g></g></svg>