<svg xmlns="http://www.w3.org/2000/svg" viewBox="0 0 473.55 473.55"><defs><style>.cls-1{fill:#001d33;stroke:#00a7ff;stroke-miterlimit:10;stroke-width:28px;}.cls-2{fill:#00a7ff;}</style></defs><g id="Layer_2" data-name="Layer 2"><g id="Icons"><g id="Ps"><rect class="cls-1" x="14" y="14" width="445.55" height="445.55" rx="222.77"/><path class="cls-2" d="M112.86,139c0-1.47.59-2.36,2.07-2.36,11.22-.29,33.08-.88,54.64-.88,57.31,0,78.58,31.9,78.58,64.39,0,47-36.34,67.35-80.94,67.35H148.6V328c0,1.47-.59,2.36-2.36,2.36h-31c-1.48,0-2.36-.59-2.36-2.07Zm35.74,96.89c5,.3,8.86.3,18.61.3C192,236.17,213,227.9,213,201c0-21.57-15.36-34.27-42.54-34.27-10.34,0-18.61.3-21.86.59Z"/><path class="cls-2" d="M327.31,210.47c-15.66,0-21,6.5-21,12.7,0,6.5,4.43,10.93,23.33,18.32,33.68,12.4,45.2,25.7,45.2,46.67,0,27.77-21.86,45.19-58.2,45.19-17.42,0-32.78-3.25-41.65-8.27-1.47-.88-2.06-1.47-2.06-3.25V293.77a1.53,1.53,0,0,1,2.36-1.48c12.7,8.28,28.95,11.82,42.24,11.82,15.36,0,22.75-5.32,22.75-13,0-7.38-5.62-12.11-23.93-19.49-32.2-11.82-43.72-25.11-43.72-46.38,0-22.45,18.32-43.42,55.24-43.42,17.13,0,30.13,2.36,37.22,5.9a3.6,3.6,0,0,1,1.77,3.55v26c0,1.48-.88,2.37-2.66,1.78C355.08,214,340.31,210.47,327.31,210.47Z"/></g></g></g></svg>