<svg xmlns="http://www.w3.org/2000/svg" viewBox="0 0 473.55 473.55"><defs><style>.cls-1{fill:#480036;stroke:#ff40f0;stroke-miterlimit:10;stroke-width:28px;}.cls-2{fill:#ff40f0;}</style></defs><g id="Layer_2" data-name="Layer 2"><g id="Icons"><g id="Xd"><rect class="cls-1" x="14" y="14" width="445.55" height="445.55" rx="222.77"/><path class="cls-2" d="M180.35,230.56,240,327.45c1.18,1.47.3,2.66-1.18,2.95H202.51c-2.37,0-3.55-.59-4.43-2.36C183.9,303.81,169.42,279.3,155,253.89h-.3c-13.29,24.82-27.17,49.92-41.06,74.15-.88,1.77-1.77,2.36-3.54,2.36H75.49c-2.07,0-2.07-1.77-1.19-2.95l57.9-94.53L75.49,139A1.62,1.62,0,0,1,77,136.33h36c1.77,0,2.66.29,3.55,2.06,13,24.52,27.76,48.74,41.06,73.26h.29c13-24.52,26.88-48.74,40.47-73a3.32,3.32,0,0,1,3.55-2.36H235c1.77,0,2.07,1.18,1.18,2.95Z"/><path class="cls-2" d="M245.63,258.91c0-42.83,31.91-77.09,83.9-77.09a102.41,102.41,0,0,1,12.7.88V122.15c0-1.48.59-2.07,1.77-2.07h32.2c1.47,0,1.47.59,1.47,1.77V300.27a188.23,188.23,0,0,0,1.19,18.91,2.3,2.3,0,0,1-1.78,2.65,139.9,139.9,0,0,1-55.83,11.52C278.42,333.35,245.63,308.54,245.63,258.91Zm96.6-45.19a39.23,39.23,0,0,0-13.89-2.07c-26.29,0-46.08,16.84-46.08,45.49,0,32.2,19.2,45.49,42.83,45.49a54.74,54.74,0,0,0,17.14-2.36Z"/></g></g></g></svg>